:FULLY-SPECIFIED
:FORCE-ALL-JOINTS-BE-3DOF
:DEGREES
1019
root 1.20048 15.2199 32.8242 6.38162 -5.00678 364.395
lfemur 7.4511 -0.860141 4.79461
ltibia 2.68545 0 0
lfoot -32.6343 -13.1828 0
ltoes -34.202 0 0
rfemur -28.5716 -11.5692 -9.28918
rtibia 44.8952 0 0
rfoot -20.892 1.33816 0
rtoes -44.6731 0 0
lowerback -3.43539 -0.223199 -0.172903
upperback -1.17858 -0.208889 -6.83501
thorax 0.597929 -0.121567 -7.07026
lowerneck -7.26123 0.921757 5.12877
upperneck 1.98116 0.60471 3.7734
head 1.84862 0.448042 0.343732
lclavicle 4.9633e-15 -1.149e-14 0
lhumerus -59.6004 -45.2492 114.347
lradius 55.2979 0 0
lwrist 26.3352 0 0
lhand 40.1769 25.5474 0
lfingers 7.12502 0 0
lthumb 62.5556 36.4476 0
rclavicle 4.9633e-15 -1.149e-14 0
rhumerus 1.95838 -8.28117 0.0213958
rradius 31.1985 0 0
rwrist -12.4319 0 0
rhand -22.9248 -38.6086 0
rfingers 7.12502 0 0
rthumb 3.51341 -788.504 0
1020
root 1.20159 15.2188 32.8216 6.35759 -4.98267 364.373
lfemur 7.45287 -0.830816 4.80081
ltibia 2.7022 0 0
lfoot -32.6313 -13.1306 0
ltoes -34.2061 0 0
rfemur -28.6033 -11.6298 -9.2373
rtibia 44.975 0 0
rfoot -20.9121 1.4042 0
rtoes -44.6083 0 0
lowerback -3.41151 -0.219429 -0.179986
upperback -1.16636 -0.204481 -6.81809
thorax 0.599262 -0.119058 -7.04711
lowerneck -7.26736 0.916775 5.15104
upperneck 1.98473 0.595309 3.77612
head 1.85117 0.443809 0.340448
lclavicle 4.89143e-15 -1.06114e-14 0
lhumerus -59.5772 -45.2756 114.368
lradius 55.3043 0 0
lwrist 26.3218 0 0
lhand 40.1309 25.5453 0
lfingers 7.12502 0 0
lthumb 62.5167 36.4899 0
rclavicle 4.89143e-15 -1.06114e-14 0
rhumerus 1.96096 -8.55167 0.0342198
rradius 31.1257 0 0
rwrist -12.3661 0 0
rhand -23.0674 -38.6556 0
rfingers 7.12502 0 0
rthumb 3.37577 -788.552 0
1021
root 1.20273 15.2178 32.8191 6.33337 -4.95806 364.35
lfemur 7.45418 -0.801054 4.80664
ltibia 2.71957 0 0
lfoot -32.628 -13.0783 0
ltoes -34.2097 0 0
rfemur -28.6355 -11.6906 -9.18497
rtibia 45.0558 0 0
rfoot -20.9316 1.47042 0
rtoes -44.5428 0 0
lowerback -3.38744 -0.215734 -0.187167
upperback -1.15409 -0.200187 -6.80109
thorax 0.600552 -0.116605 -7.02382
lowerneck -7.2735 0.911705 5.17322
upperneck 1.98836 0.585796 3.77885
head 1.85375 0.439522 0.337182
lclavicle 4.81855e-15 -9.73328e-15 0
lhumerus -59.5538 -45.3021 114.388
lradius 55.3107 0 0
lwrist 26.3083 0 0
lhand 40.0848 25.543 0
lfingers 7.12502 0 0
lthumb 62.4778 36.5322 0
rclavicle 4.81855e-15 -9.73328e-15 0
rhumerus 1.96275 -8.82219 0.0460581
rradius 31.0539 0 0
rwrist -12.3005 0 0
rhand -23.2102 -38.7029 0
rfingers 7.12502 0 0
rthumb 3.23789 -788.6 0
1022
root 1.20391 15.2168 32.8165 6.30898 -4.93296 364.327
lfemur 7.45505 -0.770882 4.8121
ltibia 2.73753 0 0
lfoot -32.6244 -13.0258 0
ltoes -34.2128 0 0
rfemur -28.6682 -11.7517 -9.13222
rtibia 45.1376 0 0
rfoot -20.9505 1.5368 0
rtoes -44.4768 0 0
lowerback -3.36318 -0.212114 -0.194438
upperback -1.14177 -0.196002 -6.78403
thorax 0.601802 -0.114207 -7.0004
lowerneck -7.27963 0.906554 5.19531
upperneck 1.99203 0.576179 3.78161
head 1.85634 0.435184 0.333933
lclavicle 4.74472e-15 -8.85579e-15 0
lhumerus -59.5301 -45.3285 114.408
lradius 55.3173 0 0
lwrist 26.2946 0 0
lhand 40.0384 25.5404 0
lfingers 7.12502 0 0
lthumb 62.4386 36.5744 0
rclavicle 4.74472e-15 -8.85579e-15 0
rhumerus 1.96377 -9.09267 0.0569473
rradius 30.983 0 0
rwrist -12.235 0 0
rhand -23.3532 -38.7505 0
rfingers 7.12502 0 0
rthumb 3.09983 -788.649 0
1023
root 1.20513 15.2159 32.8139 6.28443 -4.9074 364.305
lfemur 7.45549 -0.740326 4.81721
ltibia 2.75605 0 0
lfoot -32.6205 -12.9732 0
ltoes -34.2153 0 0
rfemur -28.7012 -11.8129 -9.07908
rtibia 45.2202 0 0
rfoot -20.9687 1.6033 0
rtoes -44.4102 0 0
lowerback -3.33875 -0.208567 -0.201795
upperback -1.1294 -0.191923 -6.76691
thorax 0.603012 -0.111861 -6.97687
lowerneck -7.28577 0.901326 5.21731
upperneck 1.99574 0.566465 3.78439
head 1.85895 0.430798 0.330702
lclavicle 4.66999e-15 -7.9792e-15 0
lhumerus -59.5061 -45.3548 114.427
lradius 55.324 0 0
lwrist 26.2807 0 0
lhand 39.992 25.5377 0
lfingers 7.12502 0 0
lthumb 62.3994 36.6165 0
rclavicle 4.66999e-15 -7.9792e-15 0
rhumerus 1.96406 -9.36302 0.066924
rradius 30.9131 0 0
rwrist -12.1698 0 0
rhand -23.4963 -38.7983 0
rfingers 7.12502 0 0
rthumb 2.96164 -788.697 0
1024
root 1.20638 15.2149 32.8113 6.25975 -4.88142 364.282
lfemur 7.45553 -0.709412 4.82199
ltibia 2.7751 0 0
lfoot -32.6165 -12.9205 0
ltoes -34.2174 0 0
rfemur -28.7347 -11.8744 -9.02559
rtibia 45.3037 0 0
rfoot -20.9864 1.66991 0
rtoes -44.3432 0 0
lowerback -3.31418 -0.205089 -0.209231
upperback -1.117 -0.187948 -6.74975
thorax 0.604184 -0.109567 -6.95323
lowerneck -7.2919 0.896025 5.23921
upperneck 1.99949 0.556661 3.78718
head 1.86157 0.426368 0.327489
lclavicle 4.59443e-15 -7.10376e-15 0
lhumerus -59.482 -45.3811 114.447
lradius 55.3307 0 0
lwrist 26.2667 0 0
lhand 39.9454 25.5348 0
lfingers 7.12502 0 0
lthumb 62.3601 36.6584 0
rclavicle 4.59443e-15 -7.10376e-15 0
rhumerus 1.96366 -9.63317 0.0760247
rradius 30.8441 0 0
rwrist -12.1048 0 0
rhand -23.6396 -38.8463 0
rfingers 7.12502 0 0
rthumb 2.82336 -788.746 0
1025
root 1.20766 15.214 32.8087 6.23493 -4.85504 364.259
lfemur 7.45518 -0.678167 4.82645
ltibia 2.79465 0 0
lfoot -32.6121 -12.8677 0
ltoes -34.219 0 0
rfemur -28.7685 -11.936 -8.97179
rtibia 45.3879 0 0
rfoot -21.0036 1.73659 0
rtoes -44.2758 0 0
lowerback -3.28946 -0.20168 -0.21674
upperback -1.10456 -0.184072 -6.73254
thorax 0.60532 -0.107322 -6.92949
lowerneck -7.29803 0.890658 5.26101
upperneck 2.00328 0.546775 3.78999
head 1.86421 0.421897 0.324294
lclavicle 4.51811e-15 -6.2297e-15 0
lhumerus -59.4576 -45.4074 114.466
lradius 55.3376 0 0
lwrist 26.2525 0 0
lhand 39.8988 25.5316 0
lfingers 7.12502 0 0
lthumb 62.3206 36.7002 0
rclavicle 4.51811e-15 -6.2297e-15 0
rhumerus 1.96259 -9.90303 0.0842859
rradius 30.776 0 0
rwrist -12.0401 0 0
rhand -23.7828 -38.8945 0
rfingers 7.12502 0 0
rthumb 2.68505 -788.796 0
1026
root 1.20898 15.2131 32.806 6.21 -4.82828 364.236
lfemur 7.45445 -0.646618 4.8306
ltibia 2.81468 0 0
lfoot -32.6076 -12.8149 0
ltoes -34.2202 0 0
rfemur -28.8027 -11.9976 -8.91769
rtibia 45.4728 0 0
rfoot -21.0202 1.80331 0
rtoes -44.2079 0 0
lowerback -3.26462 -0.198337 -0.224316
upperback -1.0921 -0.180292 -6.7153
thorax 0.606419 -0.105125 -6.90568
lowerneck -7.30415 0.885229 5.28271
upperneck 2.0071 0.536813 3.79282
head 1.86686 0.417389 0.321117
lclavicle 4.44109e-15 -5.35727e-15 0
lhumerus -59.433 -45.4336 114.485
lradius 55.3445 0 0
lwrist 26.2382 0 0
lhand 39.852 25.5284 0
lfingers 7.12502 0 0
lthumb 62.2812 36.7419 0
rclavicle 4.44109e-15 -5.35727e-15 0
rhumerus 1.96089 -10.1725 0.091744
rradius 30.7087 0 0
rwrist -11.9756 0 0
rhand -23.9261 -38.9429 0
rfingers 7.12502 0 0
rthumb 2.54676 -788.845 0
1027
root 1.21032 15.2122 32.8034 6.18498 -4.80119 364.213
lfemur 7.45338 -0.614789 4.83446
ltibia 2.83514 0 0
lfoot -32.6029 -12.762 0
ltoes -34.221 0 0
rfemur -28.8372 -12.0594 -8.86335
rtibia 45.5583 0 0
rfoot -21.0363 1.87006 0
rtoes -44.1398 0 0
lowerback -3.23968 -0.195058 -0.231953
upperback -1.07962 -0.176605 -6.69803
thorax 0.607485 -0.102975 -6.8818
lowerneck -7.31026 0.879742 5.30431
upperneck 2.01095 0.526784 3.79566
head 1.86953 0.412847 0.317959
lclavicle 4.36342e-15 -4.4867e-15 0
lhumerus -59.4083 -45.4597 114.503
lradius 55.3514 0 0
lwrist 26.2238 0 0
lhand 39.8052 25.5249 0
lfingers 7.12502 0 0
lthumb 62.2416 36.7834 0
rclavicle 4.36342e-15 -4.4867e-15 0
rhumerus 1.95858 -10.4416 0.0984356
rradius 30.6424 0 0
rwrist -11.9114 0 0
rhand -24.0692 -38.9914 0
rfingers 7.12502 0 0
rthumb 2.40853 -788.894 0
1028
root 1.21168 15.2113 32.8007 6.15987 -4.77378 364.19
lfemur 7.45197 -0.582709 4.83804
ltibia 2.85601 0 0
lfoot -32.5979 -12.7091 0
ltoes -34.2214 0 0
rfemur -28.8719 -12.1213 -8.80879
rtibia 45.6444 0 0
rfoot -21.0519 1.9368 0
rtoes -44.0713 0 0
lowerback -3.21464 -0.191842 -0.239645
upperback -1.06712 -0.173007 -6.68075
thorax 0.608518 -0.10087 -6.85787
lowerneck -7.31636 0.874204 5.3258
upperneck 2.01483 0.516694 3.7985
head 1.8722 0.408275 0.31482
lclavicle 4.28518e-15 -3.61823e-15 0
lhumerus -59.3834 -45.4858 114.522
lradius 55.3584 0 0
lwrist 26.2092 0 0
lhand 39.7584 25.5213 0
lfingers 7.12502 0 0
lthumb 62.2021 36.8248 0
rclavicle 4.28518e-15 -3.61823e-15 0
rhumerus 1.95571 -10.7101 0.104397
rradius 30.5769 0 0
rwrist -11.8474 0 0
rhand -24.2123 -39.04 0
rfingers 7.12502 0 0
rthumb 2.27041 -788.944 0
1029
root 1.21307 15.2105 32.798 6.1347 -4.74608 364.167
lfemur 7.45025 -0.550403 4.84135
ltibia 2.87726 0 0
lfoot -32.5928 -12.6561 0
ltoes -34.2214 0 0
rfemur -28.907 -12.1831 -8.75405
rtibia 45.731 0 0
rfoot -21.067 2.0035 0
rtoes -44.0026 0 0
lowerback -3.18953 -0.188685 -0.247386
upperback -1.05461 -0.169496 -6.66346
thorax 0.609519 -0.098808 -6.8339
lowerneck -7.32245 0.868619 5.34717
upperneck 2.01873 0.506551 3.80136
head 1.87487 0.403676 0.3117
lclavicle 4.20642e-15 -2.7521e-15 0
lhumerus -59.3584 -45.5117 114.54
lradius 55.3655 0 0
lwrist 26.1946 0 0
lhand 39.7116 25.5176 0
lfingers 7.12502 0 0
lthumb 62.1625 36.8661 0
rclavicle 4.20642e-15 -2.7521e-15 0
rhumerus 1.95229 -10.978 0.109666
rradius 30.5122 0 0
rwrist -11.7837 0 0
rhand -24.3552 -39.0887 0
rfingers 7.12502 0 0
rthumb 2.13246 -788.993 0
1030
root 1.21448 15.2096 32.7953 6.10947 -4.71811 364.144
lfemur 7.44823 -0.517898 4.8444
ltibia 2.89885 0 0
lfoot -32.5875 -12.6033 0
ltoes -34.2211 0 0
rfemur -28.9422 -12.245 -8.69916
rtibia 45.818 0 0
rfoot -21.0817 2.07015 0
rtoes -43.9337 0 0
lowerback -3.16435 -0.185587 -0.25517
upperback -1.0421 -0.166068 -6.64616
thorax 0.61049 -0.0967883 -6.8099
lowerneck -7.32853 0.862991 5.36844
upperneck 2.02266 0.496362 3.80422
head 1.87756 0.399053 0.3086
lclavicle 4.1272e-15 -1.88855e-15 0
lhumerus -59.3332 -45.5376 114.558
lradius 55.3726 0 0
lwrist 26.1799 0 0
lhand 39.6648 25.5137 0
lfingers 7.12502 0 0
lthumb 62.1229 36.9071 0
rclavicle 4.1272e-15 -1.88855e-15 0
rhumerus 1.94836 -11.2452 0.114277
rradius 30.4484 0 0
rwrist -11.7203 0 0
rhand -24.4978 -39.1375 0
rfingers 7.12502 0 0
rthumb 1.99472 -789.043 0
1031
root 1.21591 15.2088 32.7926 6.0842 -4.68992 364.121
lfemur 7.44593 -0.48522 4.84722
ltibia 2.92077 0 0
lfoot -32.582 -12.5504 0
ltoes -34.2204 0 0
rfemur -28.9776 -12.3068 -8.64415
rtibia 45.9054 0 0
rfoot -21.0959 2.13671 0
rtoes -43.8646 0 0
lowerback -3.13913 -0.182545 -0.262991
upperback -1.0296 -0.16272 -6.62888
thorax 0.611432 -0.0948089 -6.78588
lowerneck -7.33458 0.857327 5.38959
upperneck 2.0266 0.486135 3.8071
head 1.88025 0.394411 0.305519
lclavicle 4.04759e-15 -1.02781e-15 0
lhumerus -59.308 -45.5634 114.576
lradius 55.3797 0 0
lwrist 26.1651 0 0
lhand 39.618 25.5098 0
lfingers 7.12502 0 0
lthumb 62.0834 36.948 0
rclavicle 4.04759e-15 -1.02781e-15 0
rhumerus 1.94396 -11.5116 0.118268
rradius 30.3853 0 0
rwrist -11.6573 0 0
rhand -24.6402 -39.1863 0
rfingers 7.12502 0 0
rthumb 1.85724 -789.093 0
